<svg width="81" height="69" viewBox="0 0 81 69" fill="none" xmlns="http://www.w3.org/2000/svg">
    <g clip-path="url(#clip0)">
        <path d="M11.8803 69.0291H7.13672V64.2855L11.8803 61.123V69.0291Z" fill="#056BBE"/>
        <path d="M73.8635 69.0291H69.1199V61.123L73.8635 64.2855V69.0291Z" fill="#056BBE"/>
        <path d="M40.5001 64.2855H73.8635V48.8737L37.3376 45.7112L40.5001 64.2855Z" fill="#056BBE"/>
        <path d="M7.13672 48.8737V64.2855H40.5001V45.7112L7.13672 48.8737Z" fill="#056BBE"/>
        <path d="M40.5001 48.8736H73.8635V33.4618L37.3376 30.2994L40.5001 48.8736Z" fill="#056BBE"/>
        <path d="M40.5001 30.2994L7.13672 33.4618V48.8736H40.5001V30.2994Z" fill="#056BBE"/>
        <path d="M37.3376 14.8875L40.5001 33.4618H73.8635V18.0499L37.3376 14.8875Z" fill="#056BBE"/>
        <path d="M40.5001 14.8875L7.13672 18.0499V33.4618H40.5001V14.8875Z" fill="#056BBE"/>
        <path d="M73.8635 18.0499L40.5001 2.10571L37.3376 10.7881L40.5001 18.0499H73.8635Z" fill="#056BBE"/>
        <path d="M40.5001 2.10571L7.13672 18.0499H40.5001V2.10571Z" fill="#056BBE"/>
        <path d="M80.9999 20.1349L40.4999 -0.0309448L38.9187 3.51459L40.4999 5.26814L78.8857 24.3813L80.9999 20.1349Z" fill="#FF6A2B"/>
        <path d="M0 20.1349L2.11439 24.3813L40.5 5.26814V-0.0309448L0 20.1349Z" fill="#FF6A2B"/>
        <path d="M52.3591 59.5419V33.4816C52.3591 33.4816 48.3534 28.738 40.5001 28.738L37.3376 48.8738L40.5001 59.542H52.3591V59.5419Z" fill="#005BA6"/>
        <path d="M28.6409 33.4816V59.5419H40.4999V28.738C32.6467 28.738 28.6409 33.4816 28.6409 33.4816Z" fill="#005BA6"/>
    </g>
    <defs>
        <clipPath id="clip0">
            <rect width="81" height="69" fill="white"/>
        </clipPath>
    </defs>
</svg>
