<svg width="80" height="61" viewBox="0 0 80 61" fill="none" xmlns="http://www.w3.org/2000/svg">
    <g clip-path="url(#clip0)">
        <path d="M17.4734 60.9638H0V35.7029L18.395 23.8228L17.4734 60.9638Z" fill="#005BA6"/>
        <path d="M80.0001 60.9638H62.5121L61.6052 23.8228L80.0001 35.7029V60.9638Z" fill="#005BA6"/>
        <path d="M40.0699 3.59161V3.33771L17.4734 15.3494V60.9636H40.4757L40.0699 3.59161Z" fill="#056BBE"/>
        <path d="M62.512 15.3494L40.07 3.33771L40 60.9636H62.512V15.3494Z" fill="#056BBE"/>
        <path d="M40.1144 32.7435C40.0852 32.7431 40.0563 32.7413 40.0271 32.7413C36.1751 32.7413 33.041 35.8752 33.041 39.7274V60.9638H40.1144V32.7435Z" fill="#FF6A2B"/>
        <path d="M47.0131 60.9636V39.7272C47.0131 35.8775 43.8829 32.7452 40.0342 32.7413V60.9635H47.0131V60.9636Z" fill="#FF6A2B"/>
        <path d="M37.6643 16.7888H40.0001V26.1034H37.6643V16.7888Z" fill="white"/>
        <path d="M40 16.7888H42.3216V26.1034H40V16.7888Z" fill="white"/>
        <path d="M68.9382 40.2555H73.5956V49.5702H68.9382V40.2555Z" fill="white"/>
        <path d="M68.7916 23.5201L40.0699 5.38249L11.2082 23.5201L8.72583 19.5795L40.0699 -0.121887L71.274 19.5795L68.7916 23.5201Z" fill="#FF6A2B"/>
        <path d="M71.2739 19.5795L40.0698 -0.121887V5.38249L68.7915 23.5201L71.2739 19.5795Z" fill="#FF6A2B"/>
        <path d="M6.38989 40.2555H11.0472V49.5702H6.38989V40.2555Z" fill="white"/>
    </g>
    <defs>
        <clipPath id="clip0">
            <rect width="80" height="61" fill="white"/>
        </clipPath>
    </defs>
</svg>
