<svg width="80" height="57" viewBox="0 0 80 57" fill="none" xmlns="http://www.w3.org/2000/svg">
    <g clip-path="url(#clip0)">
        <path d="M66.1328 21.5002V39.6874C66.1328 47.2814 52.8668 51.4062 40.3516 51.4062C27.8363 51.4062 14.5703 47.2814 14.5703 39.6874V21.5002C14.5703 20.2343 15.6012 19.1564 16.9141 19.1564H63.7891C65.1019 19.1564 66.1328 20.2343 66.1328 21.5002Z" fill="#005BA6"/>
        <path d="M66.1328 21.5002V39.6874C66.1328 47.2814 52.8668 51.4062 40.3516 51.4062V19.1564H63.7891C65.1019 19.1564 66.1328 20.2343 66.1328 21.5002Z" fill="#005BA6"/>
        <path d="M80.3516 16.25C80.3516 17.2345 79.7424 18.125 78.8513 18.4528L41.1951 32.5153C40.9143 32.6093 40.6329 32.6562 40.3516 32.6562C40.0702 32.6562 39.7888 32.6093 39.5081 32.5153L1.85181 18.4528V14.0466L39.5081 -0.0158691C39.7888 -0.109253 40.0702 -0.15625 40.3516 -0.15625C40.6329 -0.15625 40.9143 -0.109253 41.1951 -0.0158691L78.8513 14.0466C79.7424 14.375 80.3516 15.2655 80.3516 16.25Z" fill="#056BBE"/>
        <path d="M80.3516 16.25C80.3516 17.2345 79.7424 18.125 78.8513 18.4528L41.1951 32.5153C40.9143 32.6093 40.6329 32.6562 40.3516 32.6562V-0.15625C40.6329 -0.15625 40.9143 -0.109253 41.1951 -0.0158691L78.8513 14.0466C79.7424 14.375 80.3516 15.2655 80.3516 16.25Z" fill="#056BBE"/>
        <path d="M42.6953 16.25C42.6953 17.5623 41.6644 18.5938 40.3516 18.5938H5.03906V40.3746L9.58557 54.0624C10.0079 55.2806 9.3512 56.6405 8.13293 57.0153C6.86707 57.4376 5.55481 56.7809 5.18005 55.562L5.03906 55.1409C4.85168 56.2657 3.86719 57.1562 2.69531 57.1562C1.38245 57.1562 0.351562 56.1248 0.351562 54.8125V16.25C0.351562 14.9371 1.38245 13.9062 2.69531 13.9062H40.3516C41.6644 13.9062 42.6953 14.9371 42.6953 16.25Z" fill="#FF6A2B"/>
    </g>
    <defs>
        <clipPath id="clip0">
            <rect width="80" height="57" fill="white"/>
        </clipPath>
    </defs>
</svg>
